<svg width="25" height="24" viewBox="0 0 25 24" fill="none" xmlns="http://www.w3.org/2000/svg">
<path d="M14.8376 20.8905C19.0206 20.6125 22.3526 17.2332 22.6268 12.9909C22.6804 12.1607 22.6804 11.3009 22.6268 10.4707C22.3526 6.22838 19.0206 2.84913 14.8376 2.57107C13.4105 2.47621 11.9206 2.47641 10.4964 2.57107C6.31338 2.84913 2.9814 6.22838 2.70723 10.4707C2.65358 11.3009 2.65358 12.1607 2.70723 12.9909C2.80709 14.536 3.49042 15.9666 4.2949 17.1746C4.762 18.0203 4.45373 19.0758 3.9672 19.9978C3.6164 20.6626 3.441 20.995 3.58183 21.2351C3.72267 21.4752 4.03725 21.4829 4.66642 21.4982C5.91066 21.5285 6.74967 21.1757 7.41567 20.6846C7.79339 20.4061 7.98226 20.2668 8.11243 20.2508C8.24259 20.2348 8.49876 20.3403 9.011 20.5513C9.47139 20.7409 10.0059 20.8579 10.4964 20.8905C11.9206 20.9852 13.4105 20.9854 14.8376 20.8905Z" fill="white"/>
<path d="M9.16699 14.5H16.167M9.16699 9.5H12.667" stroke="#0F958F" stroke-width="1.5" stroke-linecap="round" stroke-linejoin="round"/>
</svg>
